<svg width="32" height="32" viewBox="0 0 32 32" fill="none" xmlns="http://www.w3.org/2000/svg">
<path d="M16 15.6667C16.6444 15.6667 17.1944 15.4389 17.65 14.9833C18.1056 14.5278 18.3333 13.9778 18.3333 13.3333C18.3333 12.6889 18.1056 12.1389 17.65 11.6833C17.1944 11.2278 16.6444 11 16 11C15.3556 11 14.8056 11.2278 14.35 11.6833C13.8944 12.1389 13.6667 12.6889 13.6667 13.3333C13.6667 13.9778 13.8944 14.5278 14.35 14.9833C14.8056 15.4389 15.3556 15.6667 16 15.6667ZM16 26.7C18.9556 24.0111 21.1389 21.5722 22.55 19.3833C23.9611 17.1944 24.6667 15.2667 24.6667 13.6C24.6667 10.9778 23.8278 8.83333 22.15 7.16667C20.4722 5.5 18.4222 4.66667 16 4.66667C13.5778 4.66667 11.5278 5.5 9.85 7.16667C8.17222 8.83333 7.33334 10.9778 7.33334 13.6C7.33334 15.2667 8.05556 17.1944 9.5 19.3833C10.9444 21.5722 13.1111 24.0111 16 26.7ZM16 29.3333C12.4222 26.2889 9.75 23.4611 7.98334 20.85C6.21667 18.2389 5.33334 15.8222 5.33334 13.6C5.33334 10.2667 6.40556 7.61111 8.55 5.63333C10.6944 3.65555 13.1778 2.66667 16 2.66667C18.8222 2.66667 21.3056 3.65555 23.45 5.63333C25.5944 7.61111 26.6667 10.2667 26.6667 13.6C26.6667 15.8222 25.7833 18.2389 24.0167 20.85C22.25 23.4611 19.5778 26.2889 16 29.3333Z" fill="#84A872"/>
</svg>
