<svg width="32" height="32" viewBox="0 0 32 32" fill="none" xmlns="http://www.w3.org/2000/svg">
<path d="M4.66667 26.6667C4.13333 26.6667 3.66667 26.4667 3.26667 26.0667C2.86667 25.6667 2.66667 25.2 2.66667 24.6667V7.33333C2.66667 6.8 2.86667 6.33333 3.26667 5.93333C3.66667 5.53333 4.13333 5.33333 4.66667 5.33333H27.3333C27.8667 5.33333 28.3333 5.53333 28.7333 5.93333C29.1333 6.33333 29.3333 6.8 29.3333 7.33333V24.6667C29.3333 25.2 29.1333 25.6667 28.7333 26.0667C28.3333 26.4667 27.8667 26.6667 27.3333 26.6667H4.66667ZM16 16.6L4.66667 9.16667V24.6667H27.3333V9.16667L16 16.6ZM16 14.6L27.2 7.33333H4.83333L16 14.6ZM4.66667 9.16667V7.33333V24.6667V9.16667Z" fill="#84A872"/>
</svg>
